<svg width="244" height="237" viewBox="0 0 244 237" fill="none" xmlns="http://www.w3.org/2000/svg">
<path d="M118.148 1.49685C120.144 0.162128 122.745 0.162149 124.742 1.49685L239.741 78.3841C244.628 81.6513 242.319 89.2824 236.444 89.2824H217.303C217.412 90.0102 217.469 90.7553 217.469 91.5135V109.474C217.469 106.189 214.809 103.524 211.529 103.524H173.912C170.631 103.524 167.972 106.188 167.972 109.474V135.214C167.972 138.5 170.631 141.164 173.912 141.164H211.529C214.809 141.164 217.469 138.5 217.469 135.214V156.972C217.469 153.686 214.809 151.023 211.529 151.023H173.912C170.631 151.023 167.972 153.686 167.972 156.972V214.077C167.972 217.364 170.631 220.027 173.912 220.027H211.529C214.809 220.027 217.469 217.364 217.469 214.077V221.417C217.469 229.632 210.821 236.292 202.62 236.292H39.2814C31.0806 236.292 24.4324 229.632 24.4324 221.417V135.214C24.4324 138.5 27.0917 141.164 30.372 141.164H60.0699V214.077C60.0699 217.364 62.7292 220.027 66.0095 220.027H103.627C106.907 220.027 109.567 217.364 109.567 214.077V141.164H147.184C150.464 141.164 153.123 138.5 153.123 135.214V109.474C153.123 106.189 150.464 103.524 147.184 103.524H30.372C27.0917 103.524 24.4324 106.188 24.4324 109.474V91.5135C24.4324 90.7552 24.4894 90.0102 24.5987 89.2824H6.44642C0.571484 89.2824 -1.73738 81.6514 3.1489 78.3841L118.148 1.49685Z" fill="url(#paint0_linear_12_17)"/>
<path d="M217.303 89.2824V88.7865H216.727L216.814 89.3561L217.303 89.2824ZM217.469 135.214H217.964H216.974H217.469ZM217.469 214.077H217.964H216.974H217.469ZM24.4324 135.214H24.9273H23.9374H24.4324ZM60.0699 141.164H60.5648V140.668H60.0699V141.164ZM109.567 141.164V140.668H109.072V141.164H109.567ZM24.5987 89.2824L25.0881 89.3561L25.1736 88.7865H24.5987V89.2824ZM118.148 1.49685L118.422 1.90925C120.253 0.685764 122.638 0.68577 124.467 1.90925L124.742 1.49685L125.017 1.08445C122.854 -0.361471 120.036 -0.361495 117.873 1.08445L118.148 1.49685ZM124.742 1.49685L124.467 1.90925L239.466 78.7965L239.741 78.3841L240.017 77.9717L125.017 1.08445L124.742 1.49685ZM239.741 78.3841L239.466 78.7965C243.946 81.7914 241.829 88.7865 236.444 88.7865V89.2824V89.7782C242.808 89.7782 245.31 81.5111 240.017 77.9717L239.741 78.3841ZM236.444 89.2824V88.7865H217.303V89.2824V89.7782H236.444V89.2824ZM217.303 89.2824L216.814 89.3561C216.919 90.0598 216.974 90.7802 216.974 91.5135H217.469H217.964C217.964 90.7303 217.905 89.9606 217.792 89.2087L217.303 89.2824ZM217.469 91.5135H216.974V109.474H217.469H217.964V91.5135H217.469ZM217.469 109.474H217.964C217.964 105.914 215.083 103.029 211.529 103.029V103.524V104.02C214.536 104.02 216.974 106.463 216.974 109.474H217.469ZM211.529 103.524V103.029H173.912V103.524V104.02H211.529V103.524ZM173.912 103.524V103.029C170.358 103.029 167.477 105.914 167.477 109.474H167.972H168.467C168.467 106.463 170.905 104.02 173.912 104.02V103.524ZM167.972 109.474H167.477V135.214H167.972H168.467V109.474H167.972ZM167.972 135.214H167.477C167.477 138.774 170.358 141.66 173.912 141.66V141.164V140.668C170.905 140.668 168.467 138.227 168.467 135.214H167.972ZM173.912 141.164V141.66H211.529V141.164V140.668H173.912V141.164ZM211.529 141.164V141.66C215.083 141.66 217.964 138.774 217.964 135.214H217.469H216.974C216.974 138.227 214.536 140.668 211.529 140.668V141.164ZM217.469 135.214H216.974V156.972H217.469H217.964V135.214H217.469ZM217.469 156.972H217.964C217.964 153.412 215.083 150.527 211.529 150.527V151.023V151.518C214.536 151.518 216.974 153.96 216.974 156.972H217.469ZM211.529 151.023V150.527H173.912V151.023V151.518H211.529V151.023ZM173.912 151.023V150.527C170.358 150.527 167.477 153.412 167.477 156.972H167.972H168.467C168.467 153.96 170.905 151.518 173.912 151.518V151.023ZM167.972 156.972H167.477V214.077H167.972H168.467V156.972H167.972ZM167.972 214.077H167.477C167.477 217.637 170.358 220.523 173.912 220.523V220.027V219.531C170.905 219.531 168.467 217.09 168.467 214.077H167.972ZM173.912 220.027V220.523H211.529V220.027V219.531H173.912V220.027ZM211.529 220.027V220.523C215.083 220.523 217.964 217.637 217.964 214.077H217.469H216.974C216.974 217.09 214.536 219.531 211.529 219.531V220.027ZM217.469 214.077H216.974V221.417H217.469H217.964V214.077H217.469ZM217.469 221.417H216.974C216.974 229.358 210.547 235.796 202.62 235.796V236.292V236.788C211.094 236.788 217.964 229.906 217.964 221.417H217.469ZM202.62 236.292V235.796H39.2813V236.292V236.788H202.62V236.292ZM39.2813 236.292V235.796C31.3539 235.796 24.9273 229.358 24.9273 221.417H24.4324H23.9374C23.9374 229.906 30.8071 236.788 39.2813 236.788V236.292ZM24.4324 221.417H24.9273V135.214H24.4324H23.9374V221.417H24.4324ZM24.4324 135.214H23.9374C23.9374 138.774 26.8183 141.66 30.372 141.66V141.164V140.668C27.365 140.668 24.9273 138.227 24.9273 135.214H24.4324ZM30.372 141.164V141.66H60.0699V141.164V140.668H30.372V141.164ZM60.0699 141.164H59.5749V214.077H60.0699H60.5648V141.164H60.0699ZM60.0699 214.077H59.5749C59.5749 217.637 62.4558 220.523 66.0095 220.523V220.027V219.531C63.0025 219.531 60.5648 217.09 60.5648 214.077H60.0699ZM66.0095 220.027V220.523H103.627V220.027V219.531H66.0095V220.027ZM103.627 220.027V220.523C107.181 220.523 110.061 217.637 110.061 214.077H109.567H109.072C109.072 217.09 106.633 219.531 103.627 219.531V220.027ZM109.567 214.077H110.061V141.164H109.567H109.072V214.077H109.567ZM109.567 141.164V141.66H147.184V141.164V140.668H109.567V141.164ZM147.184 141.164V141.66C150.738 141.66 153.618 138.774 153.618 135.214H153.123H152.628C152.628 138.227 150.19 140.668 147.184 140.668V141.164ZM153.123 135.214H153.618V109.474H153.123H152.628V135.214H153.123ZM153.123 109.474H153.618C153.618 105.914 150.738 103.029 147.184 103.029V103.524V104.02C150.19 104.02 152.628 106.463 152.628 109.474H153.123ZM147.184 103.524V103.029H30.372V103.524V104.02H147.184V103.524ZM30.372 103.524V103.029C26.8182 103.029 23.9374 105.914 23.9374 109.474H24.4324H24.9273C24.9273 106.463 27.3649 104.02 30.372 104.02V103.524ZM24.4324 109.474H24.9273V91.5135H24.4324H23.9374V109.474H24.4324ZM24.4324 91.5135H24.9273C24.9273 90.7801 24.9825 90.0598 25.0881 89.3561L24.5987 89.2824L24.1092 89.2087C23.9963 89.9606 23.9374 90.7303 23.9374 91.5135H24.4324ZM24.5987 89.2824V88.7865H6.44638V89.2824V89.7782H24.5987V89.2824ZM6.44638 89.2824V88.7865C1.06103 88.7865 -1.05543 81.7915 3.42366 78.7965L3.14887 78.3841L2.87409 77.9717C-2.41937 81.5112 0.0818689 89.7782 6.44638 89.7782V89.2824ZM3.14887 78.3841L3.42366 78.7965L118.422 1.90925L118.148 1.49685L117.873 1.08445L2.87409 77.9717L3.14887 78.3841Z" fill="#3214F1"/>
<defs>
<linearGradient id="paint0_linear_12_17" x1="274.707" y1="29.7487" x2="-41.5177" y2="289.52" gradientUnits="userSpaceOnUse">
<stop offset="0.089242" stop-color="#3A08EE"/>
<stop offset="0.577699" stop-color="#0A4FFF"/>
<stop offset="0.938854" stop-color="#203D87"/>
</linearGradient>
</defs>
</svg>
